<svg width="30" height="30" viewBox="0 0 30 30" fill="none" xmlns="http://www.w3.org/2000/svg">
<g id="Group 25">
<path id="Vector" d="M29.24 14.62C29.24 6.55 22.7 0 14.62 0C6.54 0 0 6.55 0 14.62C0 21.92 5.35 27.97 12.34 29.06V18.84H8.63V14.61H12.34V11.39C12.34 7.73 14.52 5.7 17.86 5.7C19.46 5.7 21.13 5.99 21.13 5.99V9.59H19.29C17.47 9.59 16.91 10.72 16.91 11.87V14.61H20.97L20.32 18.84H16.91V29.06C23.9 27.96 29.25 21.91 29.25 14.62H29.24Z" fill="black" fill-opacity="0.5"/>
<path id="Vector_2" d="M20.3101 18.85L20.9601 14.62H16.9001V11.88C16.9001 10.72 17.4701 9.59996 19.2801 9.59996H21.1201V5.99996C21.1201 5.99996 19.4501 5.70996 17.8501 5.70996C14.5101 5.70996 12.3301 7.72996 12.3301 11.4V14.62H8.62012V18.85H12.3301V29.07C13.0701 29.19 13.8401 29.25 14.6101 29.25C15.3801 29.25 16.1501 29.19 16.8901 29.07V18.85H20.3001H20.3101Z" fill="white"/>
</g>
</svg>
