<svg width="30" height="30" viewBox="0 0 30 30" fill="none" xmlns="http://www.w3.org/2000/svg">
<g id="Group 23">
<path id="Vector" d="M14.62 29.24C22.6944 29.24 29.24 22.6944 29.24 14.62C29.24 6.5456 22.6944 0 14.62 0C6.5456 0 0 6.5456 0 14.62C0 22.6944 6.5456 29.24 14.62 29.24Z" fill="black" fill-opacity="0.5"/>
<g id="Group">
<path id="Vector_2" d="M19.1602 9.09033C18.6102 9.09033 18.1602 9.54033 18.1602 10.0903C18.1602 10.6403 18.6102 11.1003 19.1602 11.1003C19.7102 11.1003 20.1702 10.6503 20.1702 10.0903C20.1702 9.53033 19.7202 9.09033 19.1602 9.09033Z" fill="white"/>
<path id="Vector_3" d="M14.69 10.3804C12.36 10.3804 10.47 12.2704 10.47 14.6004C10.47 16.9304 12.36 18.8204 14.69 18.8204C17.02 18.8204 18.91 16.9304 18.91 14.6004C18.91 12.2704 17.02 10.3804 14.69 10.3804ZM14.69 17.3104C13.2 17.3104 11.99 16.1004 11.99 14.6104C11.99 13.1204 13.2 11.9104 14.69 11.9104C16.18 11.9104 17.39 13.1204 17.39 14.6104C17.39 16.1004 16.18 17.3104 14.69 17.3104Z" fill="white"/>
<path id="Vector_4" d="M18.04 23.1703H11.2C8.36005 23.1703 6.05005 20.8603 6.05005 18.0203V11.1803C6.05005 8.34027 8.36005 6.03027 11.2 6.03027H18.04C20.88 6.03027 23.19 8.34027 23.19 11.1803V18.0203C23.19 20.8603 20.88 23.1703 18.04 23.1703ZM11.2 7.64027C9.25005 7.64027 7.66005 9.23027 7.66005 11.1803V18.0203C7.66005 19.9703 9.25005 21.5603 11.2 21.5603H18.04C19.99 21.5603 21.58 19.9703 21.58 18.0203V11.1803C21.58 9.23027 19.99 7.64027 18.04 7.64027H11.2Z" fill="white"/>
</g>
</g>
</svg>
