<svg width="30" height="30" viewBox="0 0 30 30" fill="none" xmlns="http://www.w3.org/2000/svg">
<g id="Group 24">
<path id="Vector" d="M14.62 29.24C22.6944 29.24 29.24 22.6944 29.24 14.62C29.24 6.5456 22.6944 0 14.62 0C6.5456 0 0 6.5456 0 14.62C0 22.6944 6.5456 29.24 14.62 29.24Z" fill="black" fill-opacity="0.5"/>
<path id="Vector_2" d="M8.49002 11.8999H11.32V20.9999H8.49002V11.8999ZM9.91002 7.37988C10.82 7.37988 11.55 8.10988 11.55 9.01988C11.55 9.92988 10.82 10.6599 9.91002 10.6599C9.00002 10.6599 8.27002 9.91988 8.27002 9.01988C8.27002 8.11988 9.00002 7.37988 9.91002 7.37988Z" fill="white"/>
<path id="Vector_3" d="M13.1001 11.8999H15.8101V13.1399H15.8501C16.2301 12.4199 17.1501 11.6699 18.5301 11.6699C21.3901 11.6699 21.9201 13.5499 21.9201 15.9999V20.9899H19.0901V16.5699C19.0901 15.5099 19.0701 14.1599 17.6201 14.1599C16.1701 14.1599 15.9201 15.3099 15.9201 16.4999V20.9999H13.0901V11.8999H13.1001Z" fill="white"/>
</g>
</svg>
