<svg width="361" height="54" viewBox="0 0 361 54" fill="none" xmlns="http://www.w3.org/2000/svg">
<rect width="361" height="54" rx="10" fill="white"/>
<path d="M31.5651 32.52H36.4451V34H29.7451V20.06H31.5651V32.52ZM48.3779 28.1C48.3779 28.4467 48.3579 28.8133 48.3179 29.2H39.5579C39.6246 30.28 39.9912 31.1267 40.6579 31.74C41.3379 32.34 42.1579 32.64 43.1179 32.64C43.9046 32.64 44.5579 32.46 45.0779 32.1C45.6112 31.7267 45.9846 31.2333 46.1979 30.62H48.1579C47.8646 31.6733 47.2779 32.5333 46.3979 33.2C45.5179 33.8533 44.4246 34.18 43.1179 34.18C42.0779 34.18 41.1446 33.9467 40.3179 33.48C39.5046 33.0133 38.8646 32.3533 38.3979 31.5C37.9312 30.6333 37.6979 29.6333 37.6979 28.5C37.6979 27.3667 37.9246 26.3733 38.3779 25.52C38.8312 24.6667 39.4646 24.0133 40.2779 23.56C41.1046 23.0933 42.0512 22.86 43.1179 22.86C44.1579 22.86 45.0779 23.0867 45.8779 23.54C46.6779 23.9933 47.2912 24.62 47.7179 25.42C48.1579 26.2067 48.3779 27.1 48.3779 28.1ZM46.4979 27.72C46.4979 27.0267 46.3446 26.4333 46.0379 25.94C45.7312 25.4333 45.3112 25.0533 44.7779 24.8C44.2579 24.5333 43.6779 24.4 43.0379 24.4C42.1179 24.4 41.3312 24.6933 40.6779 25.28C40.0379 25.8667 39.6712 26.68 39.5779 27.72H46.4979ZM50.1002 28.48C50.1002 27.36 50.3269 26.38 50.7802 25.54C51.2336 24.6867 51.8536 24.0267 52.6402 23.56C53.4402 23.0933 54.3269 22.86 55.3002 22.86C56.2602 22.86 57.0936 23.0667 57.8002 23.48C58.5069 23.8933 59.0336 24.4133 59.3802 25.04V23.04H61.2202V34H59.3802V31.96C59.0202 32.6 58.4802 33.1333 57.7602 33.56C57.0536 33.9733 56.2269 34.18 55.2802 34.18C54.3069 34.18 53.4269 33.94 52.6402 33.46C51.8536 32.98 51.2336 32.3067 50.7802 31.44C50.3269 30.5733 50.1002 29.5867 50.1002 28.48ZM59.3802 28.5C59.3802 27.6733 59.2136 26.9533 58.8802 26.34C58.5469 25.7267 58.0936 25.26 57.5202 24.94C56.9602 24.6067 56.3402 24.44 55.6602 24.44C54.9802 24.44 54.3602 24.6 53.8002 24.92C53.2402 25.24 52.7936 25.7067 52.4602 26.32C52.1269 26.9333 51.9602 27.6533 51.9602 28.48C51.9602 29.32 52.1269 30.0533 52.4602 30.68C52.7936 31.2933 53.2402 31.7667 53.8002 32.1C54.3602 32.42 54.9802 32.58 55.6602 32.58C56.3402 32.58 56.9602 32.42 57.5202 32.1C58.0936 31.7667 58.5469 31.2933 58.8802 30.68C59.2136 30.0533 59.3802 29.3267 59.3802 28.5ZM66.1159 24.82C66.4359 24.1933 66.8892 23.7067 67.4759 23.36C68.0759 23.0133 68.8025 22.84 69.6559 22.84V24.72H69.1759C67.1359 24.72 66.1159 25.8267 66.1159 28.04V34H64.2959V23.04H66.1159V24.82ZM77.0968 22.84C78.4301 22.84 79.5101 23.2467 80.3368 24.06C81.1635 24.86 81.5768 26.02 81.5768 27.54V34H79.7768V27.8C79.7768 26.7067 79.5035 25.8733 78.9568 25.3C78.4101 24.7133 77.6635 24.42 76.7168 24.42C75.7568 24.42 74.9901 24.72 74.4168 25.32C73.8568 25.92 73.5768 26.7933 73.5768 27.94V34H71.7568V23.04H73.5768V24.6C73.9368 24.04 74.4235 23.6067 75.0368 23.3C75.6635 22.9933 76.3501 22.84 77.0968 22.84ZM104.022 20.16V34H102.202V23.68L97.6018 34H96.3218L91.7018 23.66V34H89.8818V20.16H91.8418L96.9618 31.6L102.082 20.16H104.022ZM111.888 34.18C110.862 34.18 109.928 33.9467 109.088 33.48C108.262 33.0133 107.608 32.3533 107.128 31.5C106.662 30.6333 106.428 29.6333 106.428 28.5C106.428 27.38 106.668 26.3933 107.148 25.54C107.642 24.6733 108.308 24.0133 109.148 23.56C109.988 23.0933 110.928 22.86 111.968 22.86C113.008 22.86 113.948 23.0933 114.788 23.56C115.628 24.0133 116.288 24.6667 116.768 25.52C117.262 26.3733 117.508 27.3667 117.508 28.5C117.508 29.6333 117.255 30.6333 116.748 31.5C116.255 32.3533 115.582 33.0133 114.728 33.48C113.875 33.9467 112.928 34.18 111.888 34.18ZM111.888 32.58C112.542 32.58 113.155 32.4267 113.728 32.12C114.302 31.8133 114.762 31.3533 115.108 30.74C115.468 30.1267 115.648 29.38 115.648 28.5C115.648 27.62 115.475 26.8733 115.128 26.26C114.782 25.6467 114.328 25.1933 113.768 24.9C113.208 24.5933 112.602 24.44 111.948 24.44C111.282 24.44 110.668 24.5933 110.108 24.9C109.562 25.1933 109.122 25.6467 108.788 26.26C108.455 26.8733 108.288 27.62 108.288 28.5C108.288 29.3933 108.448 30.1467 108.768 30.76C109.102 31.3733 109.542 31.8333 110.088 32.14C110.635 32.4333 111.235 32.58 111.888 32.58ZM121.721 24.82C122.041 24.1933 122.495 23.7067 123.081 23.36C123.681 23.0133 124.408 22.84 125.261 22.84V24.72H124.781C122.741 24.72 121.721 25.8267 121.721 28.04V34H119.901V23.04H121.721V24.82ZM137.362 28.1C137.362 28.4467 137.342 28.8133 137.302 29.2H128.542C128.609 30.28 128.976 31.1267 129.642 31.74C130.322 32.34 131.142 32.64 132.102 32.64C132.889 32.64 133.542 32.46 134.062 32.1C134.596 31.7267 134.969 31.2333 135.182 30.62H137.142C136.849 31.6733 136.262 32.5333 135.382 33.2C134.502 33.8533 133.409 34.18 132.102 34.18C131.062 34.18 130.129 33.9467 129.302 33.48C128.489 33.0133 127.849 32.3533 127.382 31.5C126.916 30.6333 126.682 29.6333 126.682 28.5C126.682 27.3667 126.909 26.3733 127.362 25.52C127.816 24.6667 128.449 24.0133 129.262 23.56C130.089 23.0933 131.036 22.86 132.102 22.86C133.142 22.86 134.062 23.0867 134.862 23.54C135.662 23.9933 136.276 24.62 136.702 25.42C137.142 26.2067 137.362 27.1 137.362 28.1ZM135.482 27.72C135.482 27.0267 135.329 26.4333 135.022 25.94C134.716 25.4333 134.296 25.0533 133.762 24.8C133.242 24.5333 132.662 24.4 132.022 24.4C131.102 24.4 130.316 24.6933 129.662 25.28C129.022 25.8667 128.656 26.68 128.562 27.72H135.482ZM153.337 30.9H147.257L146.137 34H144.217L149.257 20.14H151.357L156.377 34H154.457L153.337 30.9ZM152.817 29.42L150.297 22.38L147.777 29.42H152.817ZM160.393 25.08C160.767 24.4267 161.313 23.8933 162.033 23.48C162.753 23.0667 163.573 22.86 164.493 22.86C165.48 22.86 166.367 23.0933 167.153 23.56C167.94 24.0267 168.56 24.6867 169.013 25.54C169.467 26.38 169.693 27.36 169.693 28.48C169.693 29.5867 169.467 30.5733 169.013 31.44C168.56 32.3067 167.933 32.98 167.133 33.46C166.347 33.94 165.467 34.18 164.493 34.18C163.547 34.18 162.713 33.9733 161.993 33.56C161.287 33.1467 160.753 32.62 160.393 31.98V34H158.573V19.2H160.393V25.08ZM167.833 28.48C167.833 27.6533 167.667 26.9333 167.333 26.32C167 25.7067 166.547 25.24 165.973 24.92C165.413 24.6 164.793 24.44 164.113 24.44C163.447 24.44 162.827 24.6067 162.253 24.94C161.693 25.26 161.24 25.7333 160.893 26.36C160.56 26.9733 160.393 27.6867 160.393 28.5C160.393 29.3267 160.56 30.0533 160.893 30.68C161.24 31.2933 161.693 31.7667 162.253 32.1C162.827 32.42 163.447 32.58 164.113 32.58C164.793 32.58 165.413 32.42 165.973 32.1C166.547 31.7667 167 31.2933 167.333 30.68C167.667 30.0533 167.833 29.32 167.833 28.48ZM176.869 34.18C175.842 34.18 174.909 33.9467 174.069 33.48C173.242 33.0133 172.589 32.3533 172.109 31.5C171.642 30.6333 171.409 29.6333 171.409 28.5C171.409 27.38 171.649 26.3933 172.129 25.54C172.622 24.6733 173.289 24.0133 174.129 23.56C174.969 23.0933 175.909 22.86 176.949 22.86C177.989 22.86 178.929 23.0933 179.769 23.56C180.609 24.0133 181.269 24.6667 181.749 25.52C182.242 26.3733 182.489 27.3667 182.489 28.5C182.489 29.6333 182.235 30.6333 181.729 31.5C181.235 32.3533 180.562 33.0133 179.709 33.48C178.855 33.9467 177.909 34.18 176.869 34.18ZM176.869 32.58C177.522 32.58 178.135 32.4267 178.709 32.12C179.282 31.8133 179.742 31.3533 180.089 30.74C180.449 30.1267 180.629 29.38 180.629 28.5C180.629 27.62 180.455 26.8733 180.109 26.26C179.762 25.6467 179.309 25.1933 178.749 24.9C178.189 24.5933 177.582 24.44 176.929 24.44C176.262 24.44 175.649 24.5933 175.089 24.9C174.542 25.1933 174.102 25.6467 173.769 26.26C173.435 26.8733 173.269 27.62 173.269 28.5C173.269 29.3933 173.429 30.1467 173.749 30.76C174.082 31.3733 174.522 31.8333 175.069 32.14C175.615 32.4333 176.215 32.58 176.869 32.58ZM194.602 23.04V34H192.782V32.38C192.435 32.94 191.948 33.38 191.322 33.7C190.708 34.0067 190.028 34.16 189.282 34.16C188.428 34.16 187.662 33.9867 186.982 33.64C186.302 33.28 185.762 32.7467 185.362 32.04C184.975 31.3333 184.782 30.4733 184.782 29.46V23.04H186.582V29.22C186.582 30.3 186.855 31.1333 187.402 31.72C187.948 32.2933 188.695 32.58 189.642 32.58C190.615 32.58 191.382 32.28 191.942 31.68C192.502 31.08 192.782 30.2067 192.782 29.06V23.04H194.602ZM199.895 24.54V31C199.895 31.5333 200.008 31.9133 200.235 32.14C200.461 32.3533 200.855 32.46 201.415 32.46H202.755V34H201.115C200.101 34 199.341 33.7667 198.835 33.3C198.328 32.8333 198.075 32.0667 198.075 31V24.54H196.655V23.04H198.075V20.28H199.895V23.04H202.755V24.54H199.895ZM216.612 34.14C215.319 34.14 214.139 33.84 213.072 33.24C212.005 32.6267 211.159 31.78 210.532 30.7C209.919 29.6067 209.612 28.38 209.612 27.02C209.612 25.66 209.919 24.44 210.532 23.36C211.159 22.2667 212.005 21.42 213.072 20.82C214.139 20.2067 215.319 19.9 216.612 19.9C217.919 19.9 219.105 20.2067 220.172 20.82C221.239 21.42 222.079 22.26 222.692 23.34C223.305 24.42 223.612 25.6467 223.612 27.02C223.612 28.3933 223.305 29.62 222.692 30.7C222.079 31.78 221.239 32.6267 220.172 33.24C219.105 33.84 217.919 34.14 216.612 34.14ZM216.612 32.56C217.585 32.56 218.459 32.3333 219.232 31.88C220.019 31.4267 220.632 30.78 221.072 29.94C221.525 29.1 221.752 28.1267 221.752 27.02C221.752 25.9 221.525 24.9267 221.072 24.1C220.632 23.26 220.025 22.6133 219.252 22.16C218.479 21.7067 217.599 21.48 216.612 21.48C215.625 21.48 214.745 21.7067 213.972 22.16C213.199 22.6133 212.585 23.26 212.132 24.1C211.692 24.9267 211.472 25.9 211.472 27.02C211.472 28.1267 211.692 29.1 212.132 29.94C212.585 30.78 213.199 31.4267 213.972 31.88C214.759 32.3333 215.639 32.56 216.612 32.56ZM235.735 23.04V34H233.915V32.38C233.568 32.94 233.081 33.38 232.455 33.7C231.841 34.0067 231.161 34.16 230.415 34.16C229.561 34.16 228.795 33.9867 228.115 33.64C227.435 33.28 226.895 32.7467 226.495 32.04C226.108 31.3333 225.915 30.4733 225.915 29.46V23.04H227.715V29.22C227.715 30.3 227.988 31.1333 228.535 31.72C229.081 32.2933 229.828 32.58 230.775 32.58C231.748 32.58 232.515 32.28 233.075 31.68C233.635 31.08 233.915 30.2067 233.915 29.06V23.04H235.735ZM240.628 24.82C240.948 24.1933 241.401 23.7067 241.988 23.36C242.588 23.0133 243.314 22.84 244.168 22.84V24.72H243.688C241.648 24.72 240.628 25.8267 240.628 28.04V34H238.808V23.04H240.628V24.82ZM256.021 34.14C255.101 34.14 254.274 33.98 253.541 33.66C252.821 33.3267 252.254 32.8733 251.841 32.3C251.427 31.7133 251.214 31.04 251.201 30.28H253.141C253.207 30.9333 253.474 31.4867 253.941 31.94C254.421 32.38 255.114 32.6 256.021 32.6C256.887 32.6 257.567 32.3867 258.061 31.96C258.567 31.52 258.821 30.96 258.821 30.28C258.821 29.7467 258.674 29.3133 258.381 28.98C258.087 28.6467 257.721 28.3933 257.281 28.22C256.841 28.0467 256.247 27.86 255.501 27.66C254.581 27.42 253.841 27.18 253.281 26.94C252.734 26.7 252.261 26.3267 251.861 25.82C251.474 25.3 251.281 24.6067 251.281 23.74C251.281 22.98 251.474 22.3067 251.861 21.72C252.247 21.1333 252.787 20.68 253.481 20.36C254.187 20.04 254.994 19.88 255.901 19.88C257.207 19.88 258.274 20.2067 259.101 20.86C259.941 21.5133 260.414 22.38 260.521 23.46H258.521C258.454 22.9267 258.174 22.46 257.681 22.06C257.187 21.6467 256.534 21.44 255.721 21.44C254.961 21.44 254.341 21.64 253.861 22.04C253.381 22.4267 253.141 22.9733 253.141 23.68C253.141 24.1867 253.281 24.6 253.561 24.92C253.854 25.24 254.207 25.4867 254.621 25.66C255.047 25.82 255.641 26.0067 256.401 26.22C257.321 26.4733 258.061 26.7267 258.621 26.98C259.181 27.22 259.661 27.6 260.061 28.12C260.461 28.6267 260.661 29.32 260.661 30.2C260.661 30.88 260.481 31.52 260.121 32.12C259.761 32.72 259.227 33.2067 258.521 33.58C257.814 33.9533 256.981 34.14 256.021 34.14ZM273.339 28.1C273.339 28.4467 273.319 28.8133 273.279 29.2H264.519C264.585 30.28 264.952 31.1267 265.619 31.74C266.299 32.34 267.119 32.64 268.079 32.64C268.865 32.64 269.519 32.46 270.039 32.1C270.572 31.7267 270.945 31.2333 271.159 30.62H273.119C272.825 31.6733 272.239 32.5333 271.359 33.2C270.479 33.8533 269.385 34.18 268.079 34.18C267.039 34.18 266.105 33.9467 265.279 33.48C264.465 33.0133 263.825 32.3533 263.359 31.5C262.892 30.6333 262.659 29.6333 262.659 28.5C262.659 27.3667 262.885 26.3733 263.339 25.52C263.792 24.6667 264.425 24.0133 265.239 23.56C266.065 23.0933 267.012 22.86 268.079 22.86C269.119 22.86 270.039 23.0867 270.839 23.54C271.639 23.9933 272.252 24.62 272.679 25.42C273.119 26.2067 273.339 27.1 273.339 28.1ZM271.459 27.72C271.459 27.0267 271.305 26.4333 270.999 25.94C270.692 25.4333 270.272 25.0533 269.739 24.8C269.219 24.5333 268.639 24.4 267.999 24.4C267.079 24.4 266.292 24.6933 265.639 25.28C264.999 25.8667 264.632 26.68 264.539 27.72H271.459ZM277.561 24.82C277.881 24.1933 278.335 23.7067 278.921 23.36C279.521 23.0133 280.248 22.84 281.101 22.84V24.72H280.621C278.581 24.72 277.561 25.8267 277.561 28.04V34H275.741V23.04H277.561V24.82ZM287.282 32.32L290.682 23.04H292.622L288.322 34H286.202L281.902 23.04H283.862L287.282 32.32ZM295.353 21.26C295.006 21.26 294.713 21.14 294.473 20.9C294.233 20.66 294.113 20.3667 294.113 20.02C294.113 19.6733 294.233 19.38 294.473 19.14C294.713 18.9 295.006 18.78 295.353 18.78C295.686 18.78 295.966 18.9 296.193 19.14C296.433 19.38 296.553 19.6733 296.553 20.02C296.553 20.3667 296.433 20.66 296.193 20.9C295.966 21.14 295.686 21.26 295.353 21.26ZM296.233 23.04V34H294.413V23.04H296.233ZM298.655 28.5C298.655 27.3667 298.882 26.38 299.335 25.54C299.788 24.6867 300.415 24.0267 301.215 23.56C302.028 23.0933 302.955 22.86 303.995 22.86C305.342 22.86 306.448 23.1867 307.315 23.84C308.195 24.4933 308.775 25.4 309.055 26.56H307.095C306.908 25.8933 306.542 25.3667 305.995 24.98C305.462 24.5933 304.795 24.4 303.995 24.4C302.955 24.4 302.115 24.76 301.475 25.48C300.835 26.1867 300.515 27.1933 300.515 28.5C300.515 29.82 300.835 30.84 301.475 31.56C302.115 32.28 302.955 32.64 303.995 32.64C304.795 32.64 305.462 32.4533 305.995 32.08C306.528 31.7067 306.895 31.1733 307.095 30.48H309.055C308.762 31.6 308.175 32.5 307.295 33.18C306.415 33.8467 305.315 34.18 303.995 34.18C302.955 34.18 302.028 33.9467 301.215 33.48C300.415 33.0133 299.788 32.3533 299.335 31.5C298.882 30.6467 298.655 29.6467 298.655 28.5ZM321.483 28.1C321.483 28.4467 321.463 28.8133 321.423 29.2H312.663C312.73 30.28 313.097 31.1267 313.763 31.74C314.443 32.34 315.263 32.64 316.223 32.64C317.01 32.64 317.663 32.46 318.183 32.1C318.717 31.7267 319.09 31.2333 319.303 30.62H321.263C320.97 31.6733 320.383 32.5333 319.503 33.2C318.623 33.8533 317.53 34.18 316.223 34.18C315.183 34.18 314.25 33.9467 313.423 33.48C312.61 33.0133 311.97 32.3533 311.503 31.5C311.037 30.6333 310.803 29.6333 310.803 28.5C310.803 27.3667 311.03 26.3733 311.483 25.52C311.937 24.6667 312.57 24.0133 313.383 23.56C314.21 23.0933 315.157 22.86 316.223 22.86C317.263 22.86 318.183 23.0867 318.983 23.54C319.783 23.9933 320.397 24.62 320.823 25.42C321.263 26.2067 321.483 27.1 321.483 28.1ZM319.603 27.72C319.603 27.0267 319.45 26.4333 319.143 25.94C318.837 25.4333 318.417 25.0533 317.883 24.8C317.363 24.5333 316.783 24.4 316.143 24.4C315.223 24.4 314.437 24.6933 313.783 25.28C313.143 25.8667 312.777 26.68 312.683 27.72H319.603ZM327.766 34.18C326.926 34.18 326.172 34.04 325.506 33.76C324.839 33.4667 324.312 33.0667 323.926 32.56C323.539 32.04 323.326 31.4467 323.286 30.78H325.166C325.219 31.3267 325.472 31.7733 325.926 32.12C326.392 32.4667 326.999 32.64 327.746 32.64C328.439 32.64 328.986 32.4867 329.386 32.18C329.786 31.8733 329.986 31.4867 329.986 31.02C329.986 30.54 329.772 30.1867 329.346 29.96C328.919 29.72 328.259 29.4867 327.366 29.26C326.552 29.0467 325.886 28.8333 325.366 28.62C324.859 28.3933 324.419 28.0667 324.046 27.64C323.686 27.2 323.506 26.6267 323.506 25.92C323.506 25.36 323.672 24.8467 324.006 24.38C324.339 23.9133 324.812 23.5467 325.426 23.28C326.039 23 326.739 22.86 327.526 22.86C328.739 22.86 329.719 23.1667 330.466 23.78C331.212 24.3933 331.612 25.2333 331.666 26.3H329.846C329.806 25.7267 329.572 25.2667 329.146 24.92C328.732 24.5733 328.172 24.4 327.466 24.4C326.812 24.4 326.292 24.54 325.906 24.82C325.519 25.1 325.326 25.4667 325.326 25.92C325.326 26.28 325.439 26.58 325.666 26.82C325.906 27.0467 326.199 27.2333 326.546 27.38C326.906 27.5133 327.399 27.6667 328.026 27.84C328.812 28.0533 329.452 28.2667 329.946 28.48C330.439 28.68 330.859 28.9867 331.206 29.4C331.566 29.8133 331.752 30.3533 331.766 31.02C331.766 31.62 331.599 32.16 331.266 32.64C330.932 33.12 330.459 33.5 329.846 33.78C329.246 34.0467 328.552 34.18 327.766 34.18Z" fill="black"/>
</svg>
